# AST/ASF file generated using VICON BodyLanguage
# -----------------------------------------------
:version 1.10
:name VICON
:units
  mass 1.0
  length 0.45
  angle deg
:documentation
   .ast/.asf automatically generated from VICON data using
   VICON BodyBuilder and BodyLanguage model FoxedUp or BRILLIANT.MOD
:root
   order TX TY TZ RX RY RZ
   axis XYZ
   position 0 0 0  
   orientation 0 0 0 
:bonedata
  begin
     id 1 
     name lhipjoint
     direction 0.734343 -0.627749 0.258209 
     length 2.5437 
     axis 0 0 0  XYZ
  end
  begin
     id 2 
     name lfemur
     direction 0.34202 -0.939693 0  
     length 6.7391  
     axis 0 0 20  XYZ
    dof rx ry rz
    limits (-160.0 20.0)
           (-70.0 70.0)
           (-60.0 70.0)
  end
  begin
     id 3 
     name ltibia
     direction 0.34202 -0.939693 0   
     length 7.21536   
     axis 0 0 20   XYZ
    dof rx
    limits (-10.0 170.0)
  end
  begin
     id 4 
     name lfoot
     direction 0.0489572 -0.134509 0.989702   
     length 1.61313   
     axis -90 7.62852e-016 20   XYZ
    dof rx rz
    limits (-45.0 90.0)
           (-70.0 20.0)
  end
  begin
     id 5 
     name ltoes
     direction 1.53451e-011 -4.21692e-011 1   
     length 0.823104   
     axis -90 7.62852e-016 20   XYZ
    dof rx
    limits (-90.0 20.0)
  end
  begin
     id 6 
     name rhipjoint
     direction -0.746398 -0.615468 0.253157   
     length 2.59446  
     axis 0 0 0  XYZ 
  end
  begin
     id 7 
     name rfemur
     direction -0.34202 -0.939693 0   
     length 6.7075   
     axis 0 0 -20   XYZ
    dof rx ry rz
    limits (-160.0 20.0)
           (-70.0 70.0)
           (-70.0 60.0)
  end
  begin
     id 8 
     name rtibia
     direction -0.34202 -0.939693 0   
     length 7.27262   
     axis 0 0 -20   XYZ
    dof rx
    limits (-10.0 170.0)
 end
 begin
     id 9 
     name rfoot
     direction -0.0455203 -0.125066 0.991104   
     length 1.91095  
     axis -90 -7.62852e-016 -20   XYZ
    dof rx rz
    limits (-45.0 90.0)
           (-20.0 70.0)
  end
  begin
     id 10 
     name rtoes
     direction -1.53601e-011 -4.21913e-011 1   
     length 0.969037   
     axis -90 -7.62852e-016 -20   XYZ
    dof rx
    limits (-90.0 20.0)
  end
  begin
     id 11 
     name lowerback
     direction 0.0181546 0.999122 -0.0377542   
     length 1.99916   
     axis 0 0 0   XYZ
    dof rx ry rz
    limits (-20.0 45.0)
           (-30.0 30.0)
           (-30.0 30.0)
  end
  begin
     id 12 
     name upperback
     direction 0.0203486 0.99589 0.0882534   
     length 1.951   
     axis 0 0 0   XYZ
    dof rx ry rz
    limits (-20.0 45.0)
           (-30.0 30.0)
           (-30.0 30.0)
  end
  begin
     id 13 
     name thorax
     direction 0.0131685 0.994241 0.106355   
     length 1.97461   
     axis 0 0 0   XYZ
    dof rx ry rz
    limits (-20.0 45.0)
           (-30.0 30.0)
           (-30.0 30.0)
  end
  begin
     id 14 
     name lowerneck
     direction -0.0281395 0.999325 0.023617   
     length 1.7959   
     axis 0 0 0   XYZ
    dof rx ry rz
    limits (-20.0 45.0)
           (-30.0 30.0)
           (-30.0 30.0)
  end
  begin
     id 15 
     name upperneck
     direction 0.0288721 0.991984 -0.123019   
     length 1.79917   
     axis 0 0 0   XYZ
    dof rx ry rz
    limits (-20.0 45.0)
           (-30.0 30.0)
           (-30.0 30.0)
  end
  begin
     id 16
     name head
     direction 0.0133797 0.998944 -0.0439492  
     length 1.80902  
     axis 0 0 0   XYZ
    dof rx ry rz
    limits (-20.0 45.0)
           (-30.0 30.0)
           (-30.0 30.0)
  end
  begin
     id 17 
     name lclavicle
     direction 0.919195 0.377107 0.113449  
     length 3.17815  
     axis 0 0 0   XYZ
    dof ry rz
    limits (-20.0 10.0)
           (0.0 20.0)
  end
  begin
     id 18 
     name lhumerus
     direction 1 -4.48959e-011 2.13129e-027   
     length 4.84137   
     axis 180 -30 -90   XYZ
    dof rx ry rz
    limits (-60.0 90.0)
           (-90.0 90.0)
           (-90.0 90.0)
  end
  begin
     id 19
     name lradius
     direction 1 -4.48957e-011 -6.30627e-028   
     length 3.2452   
     axis 180 -30 -90   XYZ
    dof rx
    limits (-10.0 170.0)
  end
  begin
     id 20
     name lwrist
     direction 1 -4.4901e-011 9.13299e-027   
     length 1.6226   
     axis -6.84618e-015 90 90   XYZ
    dof ry
    limits (-180.0 0.0)
 end
  begin
     id 21 
     name lhand
     direction 1 -4.48816e-011 1.82293e-026   
     length 0.521221   
     axis -1.16502e-014 90 90   XYZ
    dof rx rz
    limits (-90.0 90.0)
           (-45.0 45.0)
  end
  begin
     id 22 
     name lfingers
     direction 1 -4.49108e-011 3.65687e-026   
     length 0.420221   
     axis -2.33008e-014 90 90   XYZ
    dof rx
    limits (0.0 90.0)
  end
  begin
     id 23
     name lthumb
     direction 0.707107 -6.34943e-011 0.707107   
     length 0.603356   
     axis -90 45 5.69224e-014   XYZ
    dof rx rz
    limits (-45.0 45.0)
           (-45.0 45.0)
  end
  begin
     id 24 
     name rclavicle
     direction -0.90847 0.38596 0.160368   
     length 3.12973  
     axis 0 0 0   XYZ 
    dof ry rz
    limits (-10.0 20.0)
           (-20.0 0.0)
  end
  begin
     id 25 
     name rhumerus
     direction -1 -4.48974e-011 4.47268e-028  
     length 4.72284   
     axis 180 30 90   XYZ
    dof rx ry rz
    limits (-90.0 60.0)
           (-90.0 90.0)
           (-90.0 90.0)
  end
  begin
     id 26 
     name rradius
     direction -1 -4.48969e-011 3.43203e-027   
     length 3.23459   
     axis 180 30 90   XYZ
    dof rx
    limits (-10.0 170.0)
  end
  begin
     id 27 
     name rwrist
     direction -1 -4.48969e-011 9.12911e-027   
     length 1.6173   
     axis -6.84618e-015 -90 -90   XYZ
    dof ry
    limits (-180.0 0.0)
  end
  begin
     id 28
     name rhand
     direction -1 -4.49194e-011 1.83006e-026   
     length 0.307416   
     axis -1.16502e-014 -90 -90   XYZ
    dof rx rz
    limits (-90.0 90.0)
           (-45.0 45.0)
  end
  begin
     id 29
     name rfingers
     direction -1 -4.48423e-011 3.63103e-026   
     length 0.247847   
     axis -2.33008e-014 -90 -90   XYZ
    dof rx
    limits (0.0 90.0)
  end
  begin
     id 30
     name rthumb
     direction -0.707107 -6.34802e-011 0.707107   
     length 0.35586   
     axis -90 -45 -5.69224e-014   XYZ
    dof rx rz
    limits (-45.0 45.0)
           (-45.0 45.0)
  end
:hierarchy
  begin
    root lhipjoint rhipjoint lowerback
    lhipjoint lfemur
    lfemur ltibia
    ltibia lfoot
    lfoot ltoes
    rhipjoint rfemur
    rfemur rtibia
    rtibia rfoot
    rfoot rtoes
    lowerback upperback
    upperback thorax
    thorax lowerneck lclavicle rclavicle
    lowerneck upperneck
    upperneck head
    lclavicle lhumerus
    lhumerus lradius
    lradius lwrist
    lwrist lhand lthumb
    lhand lfingers
    rclavicle rhumerus
    rhumerus rradius
    rradius rwrist
    rwrist rhand rthumb
    rhand rfingers
  end

#!OML:ASF H:\Terrain\Patient Classification 1\Animal1\Tuesday\Animal1.ASF
:FULLY-SPECIFIED
:DEGREES
283
root 10.1994 15.9134 -10.2544 5.37043 25.1381 5.25777
lowerback 1.38065 3.62384 9.51482
upperback 0.849966 4.93889 3.45201
thorax 0.603592 2.51036 -1.7464
lowerneck 4.48894 16.8544 2.33616
upperneck -30.2462 22.4217 -10.2998
head -8.72513 11.479 -5.52039
rclavicle 9.16397e-014 4.77083e-014
rhumerus -0.449505 24.8911 -65.1091
rradius 46.8665
rwrist -17.5395
rhand -18.3794 24.9168
rfingers 7.12502
rthumb 7.90421 -4.91543
lclavicle 9.16397e-014 4.77083e-014
lhumerus 6.25738 -36.0689 80.7244
lradius 50.4974
lwrist -24.8968
lhand 16.8683 34.9655
lfingers 7.12502
lthumb 41.6073 59.6857
rfemur -24.6573 -3.89347 15.9005
rtibia 46.763
rfoot -23.9363 -29.722
rtoes 19.3722
lfemur -24.2127 -14.2791 -13.2571
ltibia 28.6293
lfoot -19.8193 10.9628
ltoes -27.9862
284
root 10.2093 15.9168 -10.2585 5.23919 25.0071 4.82539
lowerback 1.32772 3.5476 9.78663
upperback 0.906673 4.82937 3.54333
thorax 0.696293 2.46233 -1.79439
lowerneck 4.17465 16.8787 2.34693
upperneck -30.0798 22.4499 -10.2527
head -8.61584 11.4918 -5.45626
rclavicle 3.80673e-014 0
rhumerus -0.185258 24.9894 -65.1037
rradius 46.8264
rwrist -17.5671
rhand -18.2341 25.0194
rfingers 7.12502
rthumb 8.04444 -4.80747
lclavicle 3.80673e-014 0
lhumerus 6.4265 -35.8743 80.5965
lradius 50.2853
lwrist -25.008
lhand 16.2237 34.8696
lfingers 7.12502
lthumb 41.0022 59.7852
rfemur -24.6529 -3.8128 16.305
rtibia 46.5896
rfoot -23.4495 -29.9778
rtoes 17.4311
lfemur -24.2736 -14.1745 -12.844
ltibia 28.6967
lfoot -20.0907 10.4632
ltoes -25.7259
285
root 10.2166 15.9176 -10.2632 5.07818 24.8995 4.4253
lowerback 0.932153 3.50462 10.0133
upperback 1.21571 4.69443 3.64159
thorax 1.23786 2.42635 -1.77519
lowerneck 3.97292 16.8141 2.31646
upperneck -30.2543 22.3256 -10.4127
head -8.63122 11.4567 -5.48893
rclavicle 4.09496e-014 -9.54166e-015
rhumerus 0.392839 24.945 -64.889
rradius 46.7752
rwrist -17.3759
rhand -18.1022 25.0996
rfingers 7.12502
rthumb 8.17167 -4.72236
lclavicle 4.09496e-014 -9.54166e-015
lhumerus 7.0147 -35.7409 80.1961
lradius 50.1002
lwrist -24.9986
lhand 15.6678 34.4684
lfingers 7.12502
lthumb 40.4798 59.5479
rfemur -24.6281 -3.79368 16.7038
rtibia 46.4739
rfoot -22.7143 -30.3899
rtoes 15.4116
lfemur -24.3258 -14.0999 -12.4727
ltibia 28.7792
lfoot -19.9537 10.5941
ltoes -25.7631
286
root 10.2222 15.9164 -10.2681 5.00669 24.7102 4.43856
lowerback 1.42174 3.5534 9.99936
upperback 0.995736 4.84349 3.51084
thorax 0.758811 2.47552 -1.94484
lowerneck 4.0336 16.6112 2.2874
upperneck -30.0524 22.0825 -10.1248
head -8.62932 11.314 -5.38308
rclavicle -3.83654e-014 -9.54166e-015
rhumerus -0.125488 24.8262 -65.1729
rradius 46.8138
rwrist -17.1158
rhand -17.2324 25.5686
rfingers 7.12502
rthumb 9.01113 -4.21893
lclavicle -3.83654e-014 -9.54166e-015
lhumerus 6.49873 -36.0483 80.3741
lradius 50.1821
lwrist -25.2227
lhand 16.02 34.1297
lfingers 7.12502
lthumb 40.8109 59.1059
rfemur -24.5865 -3.67278 16.6486
rtibia 46.4263
rfoot -22.7544 -30.2259
rtoes 15.8057
lfemur -24.289 -14.1326 -12.5399
ltibia 28.918
lfoot -19.7147 10.6766
ltoes -25.7383
287
root 10.2296 15.9139 -10.2729 5.03474 24.5777 4.59886
lowerback 0.934267 3.54023 9.62928
upperback 1.35879 4.72857 3.56491
thorax 1.36404 2.44858 -1.63936
lowerneck 4.20476 16.5669 2.02682
upperneck -30.5328 21.9926 -10.2645
head -8.84761 11.3045 -5.46011
rclavicle -6.79844e-014 -1.27222e-014
rhumerus 0.475511 24.923 -64.7531
rradius 46.8407
rwrist -17.2711
rhand -16.4373 26.0016
rfingers 7.12502
rthumb 9.77827 -3.75137
lclavicle -6.79844e-014 -1.27222e-014
lhumerus 6.88641 -35.7048 80.3663
lradius 50.0096
lwrist -25.6095
lhand 16.0867 33.8317
lfingers 7.12502
lthumb 40.8735 58.7882
rfemur -24.5779 -3.59558 16.4188
rtibia 46.3958
rfoot -23.0696 -29.829
rtoes 17.4675
lfemur -24.3216 -14.1802 -12.7395
ltibia 29.0871
lfoot -19.5955 10.4696
ltoes -25.3149
288
root 10.2421 15.9088 -10.2773 5.08251 24.5827 4.5451
lowerback 0.867655 3.42411 9.52489
upperback 1.33736 4.56777 3.60026
thorax 1.3515 2.36655 -1.54703
lowerneck 4.28888 16.5977 2.02248
upperneck -30.5977 22.0308 -10.2878
head -8.88029 11.3223 -5.48361
rclavicle -3.99557e-014 -6.36111e-015
rhumerus 0.621015 25.2632 -64.6422
rradius 46.8747
rwrist -17.4751
rhand -17.3152 25.7829
rfingers 7.12502
rthumb 8.93116 -4.00804
lclavicle -3.99557e-014 -6.36111e-015
lhumerus 6.74679 -35.4184 80.5309
lradius 49.8083
lwrist -25.6292
lhand 15.547 33.5609
lfingers 7.12502
lthumb 40.3663 58.6754
rfemur -24.6107 -3.73534 16.4156
rtibia 46.3304
rfoot -22.9917 -29.7256
rtoes 17.4458
lfemur -24.5195 -14.1626 -12.72
ltibia 29.3166
lfoot -19.5219 10.5642
ltoes -25.9128
289
root 10.2532 15.9081 -10.2829 4.96341 24.5069 4.05703
lowerback 1.51577 3.37133 9.98321
upperback 0.871648 4.62602 3.55084
thorax 0.548214 2.35557 -1.91072
lowerneck 4.31634 16.5144 2.26704
upperneck -30.1372 21.9798 -9.95615
head -8.74029 11.2413 -5.36923
rclavicle -4.40308e-014 -2.8625e-014
rhumerus -0.0107853 25.4744 -65.0974
rradius 46.818
rwrist -17.3831
rhand -18.3417 25.1623
rfingers 7.12502
rthumb 7.94053 -4.66853
lclavicle -4.40308e-014 -2.8625e-014
lhumerus 5.97443 -35.6817 80.7467
lradius 49.8156
lwrist -25.5085
lhand 15.3979 33.6511
lfingers 7.12502
lthumb 40.2261 58.8086
rfemur -24.6418 -3.73307 16.8713
rtibia 46.1923
rfoot -22.8745 -29.7234
rtoes 16.9562
lfemur -24.7395 -14.0347 -12.2508
ltibia 29.5979
lfoot -19.7082 10.2718
ltoes -24.3307
290
root 10.2605 15.9075 -10.2896 4.68488 24.3162 3.53259
lowerback 1.08074 3.39149 10.2186
upperback 1.30295 4.55826 3.76742
thorax 1.23738 2.3628 -1.76596
lowerneck 4.11135 16.443 2.18651
upperneck -30.2773 21.8363 -10.1349
head -8.74798 11.2059 -5.39787
rclavicle 4.45278e-014 -1.59028e-014
rhumerus 0.74898 25.5748 -64.595
rradius 46.715
rwrist -17.4421
rhand -19.1149 24.9085
rfingers 7.12502
rthumb 7.19423 -4.94922
lclavicle 4.45278e-014 -1.59028e-014
lhumerus 6.61975 -35.6141 80.4326
lradius 49.7682
lwrist -25.7883
lhand 15.5409 33.8126
lfingers 7.12502
lthumb 40.3606 58.9289
rfemur -24.5664 -3.50579 17.3571
rtibia 46.0611
rfoot -22.8452 -29.7292
rtoes 17.1364
lfemur -24.7861 -13.9077 -11.755
ltibia 29.8389
lfoot -19.941 9.89494
ltoes -22.5329
291
root 10.2669 15.9057 -10.2936 4.60044 24.0917 3.43117
lowerback 1.11931 3.39555 10.1437
upperback 1.37535 4.56231 3.8152
thorax 1.28178 2.36772 -1.67556
lowerneck 3.88965 16.3981 2.10811
upperneck -30.0014 21.7518 -10.0806
head -8.63437 11.1748 -5.31927
rclavicle -3.29983e-014 -7.31528e-014
rhumerus 0.822324 25.7989 -64.4672
rradius 46.7555
rwrist -17.6785
rhand -19.6421 25.1734
rfingers 7.12502
rthumb 6.68533 -4.70104
lclavicle -3.29983e-014 -7.31528e-014
lhumerus 6.60047 -35.6932 80.3728
lradius 49.8255
lwrist -25.9201
lhand 15.3583 33.5886
lfingers 7.12502
lthumb 40.1888 58.7574
rfemur -24.5647 -3.27918 17.4155
rtibia 46.0121
rfoot -22.6181 -29.8551
rtoes 16.3618
lfemur -24.7756 -13.7596 -11.7081
ltibia 29.9794
lfoot -19.9663 10.0559
ltoes -23.0981
292
root 10.2717 15.9086 -10.2959 4.61798 23.8993 3.505
lowerback 1.57613 3.3627 9.96807
upperback 1.11762 4.60235 3.73046
thorax 0.752396 2.35844 -1.71106
lowerneck 3.69167 16.3872 2.10476
upperneck -29.4966 21.7502 -9.83297
head -8.45753 11.1537 -5.17735
rclavicle 3.02153e-014 -2.8625e-014
rhumerus 0.319807 25.9638 -64.7753
rradius 46.8484
rwrist -17.8559
rhand -19.5291 25.4333
rfingers 7.12502
rthumb 6.79445 -4.43764
lclavicle 3.02153e-014 -2.8625e-014
lhumerus 6.09524 -35.695 80.6247
lradius 49.7044
lwrist -25.8202
lhand 14.9234 33.2634
lfingers 7.12502
lthumb 39.7795 58.5556
rfemur -24.5977 -3.12574 17.3286
rtibia 46.0269
rfoot -22.7259 -29.6914
rtoes 16.601
lfemur -24.7279 -13.4498 -11.894
ltibia 30.0084
lfoot -19.4577 11.0136
ltoes -27.2453
293
root 10.2785 15.9137 -10.3022 4.50209 23.7997 3.39541
lowerback 1.09831 3.33774 9.68478
upperback 1.54361 4.46704 3.96303
thorax 1.41062 2.32463 -1.26875
lowerneck 3.69488 16.386 1.84669
upperneck -29.9542 21.6761 -10.1527
head -8.61104 11.1746 -5.28328
rclavicle 6.93758e-014 4.45278e-014
rhumerus 1.01067 26.0278 -64.1646
rradius 46.8474
rwrist -17.9648
rhand -19.2986 25.4167
rfingers 7.12502
rthumb 7.01696 -4.447
lclavicle 6.93758e-014 4.45278e-014
lhumerus 6.77519 -35.3482 80.6417
lradius 49.3623
lwrist -25.9005
lhand 14.5677 33.2646
lfingers 7.12502
lthumb 39.4446 58.6558
rfemur -24.5432 -3.13747 17.448
rtibia 46.0692
rfoot -23.077 -29.2093
rtoes 18.684
lfemur -24.6212 -13.2413 -11.8934
ltibia 29.958
lfoot -18.9329 12.2045
ltoes -31.6712
